<mxfile host="app.diagrams.net" modified="2022-01-30T06:34:56.361Z" agent="5.0 (Macintosh; Intel Mac OS X 10_15_7) AppleWebKit/537.36 (KHTML, like Gecko) Chrome/97.0.4692.99 Safari/537.36" etag="0NrldwM42AajfH-uWxPJ" version="16.4.7" type="github">
  <diagram name="Page-1" id="c7488fd3-1785-93aa-aadb-54a6760d102a">
    <mxGraphModel dx="1415" dy="769" grid="1" gridSize="10" guides="1" tooltips="1" connect="1" arrows="1" fold="1" page="1" pageScale="1" pageWidth="1100" pageHeight="850" background="none" math="0" shadow="0">
      <root>
        <mxCell id="0" />
        <mxCell id="1" parent="0" />
        <mxCell id="jojfpc9gebokNS5uU6X--34" value="" style="rounded=1;whiteSpace=wrap;html=1;fillColor=#dae8fc;strokeColor=#6c8ebf;" vertex="1" parent="1">
          <mxGeometry x="210" y="200" width="740" height="90" as="geometry" />
        </mxCell>
        <mxCell id="jojfpc9gebokNS5uU6X--33" value="" style="rounded=1;whiteSpace=wrap;html=1;fillColor=#fff2cc;strokeColor=#d6b656;" vertex="1" parent="1">
          <mxGeometry x="210" y="80" width="740" height="110" as="geometry" />
        </mxCell>
        <mxCell id="jojfpc9gebokNS5uU6X--28" style="edgeStyle=orthogonalEdgeStyle;rounded=0;orthogonalLoop=1;jettySize=auto;html=1;exitX=1;exitY=0.5;exitDx=0;exitDy=0;exitPerimeter=0;entryX=0;entryY=0.5;entryDx=0;entryDy=0;" edge="1" parent="1" source="jojfpc9gebokNS5uU6X--14" target="jojfpc9gebokNS5uU6X--15">
          <mxGeometry relative="1" as="geometry" />
        </mxCell>
        <mxCell id="jojfpc9gebokNS5uU6X--14" value="找回账号" style="strokeWidth=2;html=1;shape=mxgraph.flowchart.start_1;whiteSpace=wrap;" vertex="1" parent="1">
          <mxGeometry x="230" y="110" width="90" height="40" as="geometry" />
        </mxCell>
        <mxCell id="jojfpc9gebokNS5uU6X--30" style="edgeStyle=orthogonalEdgeStyle;rounded=0;orthogonalLoop=1;jettySize=auto;html=1;" edge="1" parent="1" source="jojfpc9gebokNS5uU6X--15" target="jojfpc9gebokNS5uU6X--18">
          <mxGeometry relative="1" as="geometry" />
        </mxCell>
        <mxCell id="jojfpc9gebokNS5uU6X--15" value="输入 heyID" style="shape=parallelogram;html=1;strokeWidth=2;perimeter=parallelogramPerimeter;whiteSpace=wrap;rounded=1;arcSize=12;size=0.23;" vertex="1" parent="1">
          <mxGeometry x="360" y="110" width="100" height="40" as="geometry" />
        </mxCell>
        <mxCell id="jojfpc9gebokNS5uU6X--21" style="edgeStyle=orthogonalEdgeStyle;rounded=0;orthogonalLoop=1;jettySize=auto;html=1;exitX=1;exitY=0.5;exitDx=0;exitDy=0;exitPerimeter=0;entryX=0.409;entryY=1.017;entryDx=0;entryDy=0;entryPerimeter=0;" edge="1" parent="1" source="jojfpc9gebokNS5uU6X--18" target="jojfpc9gebokNS5uU6X--19">
          <mxGeometry relative="1" as="geometry" />
        </mxCell>
        <mxCell id="jojfpc9gebokNS5uU6X--22" value="YES" style="edgeLabel;html=1;align=center;verticalAlign=middle;resizable=0;points=[];" vertex="1" connectable="0" parent="jojfpc9gebokNS5uU6X--21">
          <mxGeometry x="-0.1014" y="-3" relative="1" as="geometry">
            <mxPoint x="1" as="offset" />
          </mxGeometry>
        </mxCell>
        <mxCell id="jojfpc9gebokNS5uU6X--18" value="手机号验证" style="strokeWidth=2;html=1;shape=mxgraph.flowchart.decision;whiteSpace=wrap;" vertex="1" parent="1">
          <mxGeometry x="358" y="210" width="104" height="70" as="geometry" />
        </mxCell>
        <mxCell id="jojfpc9gebokNS5uU6X--31" style="edgeStyle=orthogonalEdgeStyle;rounded=0;orthogonalLoop=1;jettySize=auto;html=1;entryX=0.5;entryY=0;entryDx=0;entryDy=0;" edge="1" parent="1" source="jojfpc9gebokNS5uU6X--19" target="jojfpc9gebokNS5uU6X--24">
          <mxGeometry relative="1" as="geometry" />
        </mxCell>
        <mxCell id="jojfpc9gebokNS5uU6X--37" value="success" style="edgeLabel;html=1;align=center;verticalAlign=middle;resizable=0;points=[];" vertex="1" connectable="0" parent="jojfpc9gebokNS5uU6X--31">
          <mxGeometry x="-0.2235" y="1" relative="1" as="geometry">
            <mxPoint as="offset" />
          </mxGeometry>
        </mxCell>
        <mxCell id="jojfpc9gebokNS5uU6X--19" value="人脸识别&lt;br&gt;（hey:do 协议，type：4&lt;br&gt;）" style="rounded=1;whiteSpace=wrap;html=1;absoluteArcSize=1;arcSize=14;strokeWidth=2;" vertex="1" parent="1">
          <mxGeometry x="495" y="100" width="110" height="60" as="geometry" />
        </mxCell>
        <mxCell id="jojfpc9gebokNS5uU6X--32" style="edgeStyle=orthogonalEdgeStyle;rounded=0;orthogonalLoop=1;jettySize=auto;html=1;entryX=0;entryY=0.5;entryDx=0;entryDy=0;entryPerimeter=0;" edge="1" parent="1" source="jojfpc9gebokNS5uU6X--24" target="jojfpc9gebokNS5uU6X--25">
          <mxGeometry relative="1" as="geometry" />
        </mxCell>
        <mxCell id="jojfpc9gebokNS5uU6X--24" value="填写申诉信息" style="shape=parallelogram;html=1;strokeWidth=2;perimeter=parallelogramPerimeter;whiteSpace=wrap;rounded=1;arcSize=12;size=0.23;" vertex="1" parent="1">
          <mxGeometry x="630" y="225" width="100" height="40" as="geometry" />
        </mxCell>
        <mxCell id="jojfpc9gebokNS5uU6X--25" value="提交" style="strokeWidth=2;html=1;shape=mxgraph.flowchart.start_1;whiteSpace=wrap;" vertex="1" parent="1">
          <mxGeometry x="790" y="222" width="60" height="45" as="geometry" />
        </mxCell>
        <mxCell id="jojfpc9gebokNS5uU6X--35" value="客户端" style="text;html=1;align=center;verticalAlign=middle;resizable=0;points=[];autosize=1;strokeColor=none;fillColor=none;" vertex="1" parent="1">
          <mxGeometry x="135" y="110" width="50" height="20" as="geometry" />
        </mxCell>
        <mxCell id="jojfpc9gebokNS5uU6X--36" value="H5" style="text;html=1;align=center;verticalAlign=middle;resizable=0;points=[];autosize=1;strokeColor=none;fillColor=none;" vertex="1" parent="1">
          <mxGeometry x="150" y="234.5" width="30" height="20" as="geometry" />
        </mxCell>
      </root>
    </mxGraphModel>
  </diagram>
</mxfile>
